<svg width="182" height="53" viewBox="0 0 182 53" fill="none" xmlns="http://www.w3.org/2000/svg">
<g clip-path="url(#clip0_30_637)">
<path d="M174.605 1.74219H170.355V24.7203H174.605V1.74219Z" fill="white"/>
<path d="M180.094 37.7205L182.042 34.158C180.448 33.2673 179.032 33.0892 177.438 33.4455C176.022 33.8017 175.136 34.5142 174.428 35.7611V33.8017H170.355V51.9705H174.605V41.6392C174.605 40.0361 175.136 38.7892 176.022 37.8986C177.084 37.008 178.5 37.008 180.094 37.7205Z" fill="white"/>
<path d="M166.638 1.74219H162.565V20.9797H154.42C154.774 20.6234 155.129 20.0891 155.483 19.3766C155.837 18.8422 156.014 18.1297 156.014 17.2391C156.014 15.4578 155.483 14.0328 154.243 12.7859C153.004 11.5391 151.587 11.0047 149.817 11.0047C148.046 11.0047 146.63 11.5391 145.39 12.7859C144.151 14.0328 143.619 15.4578 143.619 17.2391C143.619 18.1297 143.797 18.8422 144.151 19.5547C144.505 20.2672 144.859 20.6234 145.213 20.9797H133.35V11.7172H129.277V20.9797H84.3029V1.74219H80.2305V24.7203H166.461V1.74219H166.638ZM149.463 20.9797C148.754 20.9797 148.046 20.8016 147.515 20.0891C146.984 19.5547 146.63 18.8422 146.63 17.9516C146.63 17.0609 146.807 16.3484 147.515 15.8141C148.046 15.2797 148.754 14.9234 149.64 14.9234C150.525 14.9234 151.233 15.1016 151.764 15.8141C152.296 16.3484 152.65 17.0609 152.65 17.9516C152.65 18.8422 152.296 19.5547 151.764 20.0891C151.056 20.6234 150.348 20.9797 149.463 20.9797Z" fill="white"/>
<path d="M149.284 4.41406C148.752 4.41406 148.221 4.59219 147.867 4.94844C147.513 5.30469 147.336 5.83906 147.336 6.37344C147.336 6.90781 147.513 7.44219 147.867 7.79844C148.221 8.3328 148.752 8.6891 149.284 8.6891C149.815 8.6891 150.346 8.5109 150.7 7.97656C151.054 7.62031 151.231 7.08594 151.231 6.55156C151.231 6.01719 151.054 5.48281 150.7 5.12656C150.346 4.59219 149.815 4.41406 149.284 4.41406Z" fill="white"/>
<path d="M159.642 33.6734C158.757 33.1391 157.694 32.9609 156.455 32.9609C153.799 32.9609 151.674 33.8516 149.726 35.6328C147.956 37.4141 147.07 39.7297 147.07 42.4016C147.07 45.0734 147.956 47.3891 149.726 49.1703C151.497 50.9516 153.799 51.8422 156.455 51.8422C157.871 51.8422 158.934 51.6641 159.819 51.1297C160.704 50.5953 161.59 49.8828 162.121 48.8141V51.3078H166.193V33.4953H162.121V35.9891C161.413 34.9203 160.704 34.2078 159.642 33.6734ZM153.09 38.6609C154.153 37.5922 155.392 37.2359 156.809 37.2359C158.402 37.2359 159.642 37.7703 160.704 38.8391C161.767 39.9078 162.298 41.1547 162.298 42.7578C162.298 44.1828 161.767 45.4297 160.704 46.4984C159.642 47.5672 158.402 48.1016 156.986 48.1016C155.392 48.1016 154.153 47.5672 153.09 46.4984C152.028 45.4297 151.497 44.1828 151.497 42.5797C151.497 40.9766 152.028 39.7297 153.09 38.6609Z" fill="white"/>
<path d="M144.681 42.3516C144.681 40.7484 144.681 39.5016 144.504 38.6109C144.326 37.7203 143.972 37.0078 143.618 36.2953C142.91 35.2266 142.202 34.5141 141.139 34.1578C140.254 33.6234 139.015 33.4453 137.775 33.4453C136.713 33.4453 135.827 33.6234 135.119 33.9797C134.234 34.3359 133.526 35.0484 132.994 35.9391V33.8016H128.922V51.9703H132.994V44.1328C132.994 41.6391 133.348 40.0359 133.88 38.9672C134.588 37.8984 135.473 37.5422 136.89 37.5422C138.306 37.5422 139.192 38.0766 139.723 38.9672C140.254 39.8578 140.608 41.4609 140.608 43.9547V51.9703H144.858V42.3516H144.681Z" fill="white"/>
<path d="M115.112 4.41406C114.581 4.41406 114.049 4.59219 113.695 4.94844C113.341 5.30469 113.164 5.83906 113.164 6.37344C113.164 6.90781 113.341 7.44219 113.695 7.79844C114.049 8.3328 114.581 8.6891 115.112 8.6891C115.643 8.6891 116.174 8.5109 116.528 7.97656C116.882 7.62031 117.059 7.08594 117.059 6.55156C117.059 6.01719 116.882 5.48281 116.528 5.12656C116.174 4.59219 115.82 4.41406 115.112 4.41406Z" fill="white"/>
<path d="M106.967 27.3891C105.728 26.6766 104.134 26.3203 102.187 26.3203C100.062 26.3203 98.6456 27.0328 97.9373 27.9234C97.052 28.9922 96.6979 30.5953 96.6979 32.7328V35.9391H95.2812V39.6797H96.6979V51.9703H100.947V39.6797H105.02V35.9391H100.947V32.7328C100.947 31.6641 101.301 30.9516 101.833 30.5953C102.541 30.2391 103.603 30.4172 105.02 30.7734L106.967 27.3891Z" fill="white"/>
<path d="M71.9093 11.7188V17.5969C71.9093 19.9125 71.024 21.3374 69.4304 22.0499C68.0139 22.5843 66.2432 22.5843 63.9414 22.0499C63.9414 23.4749 64.8267 24.5438 66.4203 25.2563C68.1909 25.9688 69.9616 25.9688 71.7322 25.2563C73.3258 24.7219 74.5653 23.653 75.0965 22.0499C75.6276 20.803 75.8047 19.2 75.8047 17.0625V11.7188H71.9093Z" fill="white"/>
<path d="M80.2301 33.8016V36.2953C79.5219 35.2266 78.6366 34.5141 77.5742 34.1578C76.6889 33.6234 75.6265 33.4453 74.387 33.4453C71.7311 33.4453 69.6063 34.3359 67.8357 36.1172C66.065 37.8984 65.1797 40.2141 65.1797 42.8859C65.1797 45.5578 66.065 47.8734 67.8357 49.6547C69.6063 51.4359 71.9081 52.3266 74.5641 52.3266C75.9806 52.3266 77.043 52.1484 77.9283 51.6141C78.8136 51.0797 79.5219 50.3672 80.2301 49.2984V51.7922H84.3026V33.8016H80.2301ZM74.9182 37.5422C76.5118 37.5422 77.7512 38.0766 78.6366 39.1453C79.699 40.2141 80.2301 41.4609 80.2301 43.0641C80.2301 44.4891 79.699 45.7359 78.6366 46.8047C77.5742 47.8734 76.3347 48.4078 74.9182 48.4078C73.3246 48.4078 72.0852 47.8734 71.0228 46.8047C69.9604 45.7359 69.4292 44.4891 69.4292 42.8859C69.4292 41.4609 69.9604 40.2141 71.0228 39.1453C72.0852 38.0766 73.3246 37.5422 74.9182 37.5422Z" fill="white"/>
<path d="M120.777 33.8016V36.2953C120.069 35.2266 119.183 34.5141 118.121 34.1578C117.236 33.6234 116.173 33.4453 114.934 33.4453C112.278 33.4453 110.153 34.3359 108.383 36.1172C106.612 37.8984 105.727 40.2141 105.727 42.8859C105.727 45.5578 106.612 47.8734 108.56 49.6547C110.33 51.4359 112.632 52.3266 115.288 52.3266C116.705 52.3266 117.767 52.1484 118.652 51.6141C119.538 51.0797 120.246 50.3672 120.954 49.2984V51.7922H125.027V33.8016H120.777ZM119.183 38.9672C120.246 40.0359 120.6 41.2828 120.6 42.8859C120.6 44.3109 120.069 45.5578 119.183 46.6266C118.121 47.6953 116.882 48.2297 115.465 48.2297C113.872 48.2297 112.632 47.6953 111.57 46.6266C110.507 45.5578 109.976 44.3109 109.976 42.7078C109.976 41.2828 110.507 40.0359 111.57 38.9672C112.632 37.8984 113.872 37.5422 115.288 37.5422C116.882 37.5422 118.121 38.0766 119.183 38.9672Z" fill="white"/>
<path d="M92.8029 26.8594H88.7305V51.975H92.8029V26.8594Z" fill="white"/>
<path d="M38.4427 3.87811C34.7244 1.74061 30.8289 0.671875 26.4023 0.671875V12.7844H38.4427V3.87811Z" fill="white"/>
<path d="M25.5169 16.5219V13.6719H13.4766V25.7844H16.3096C18.7885 25.7844 21.0903 24.8938 22.861 23.1125C24.6316 21.3313 25.5169 19.0156 25.5169 16.5219Z" fill="white"/>
<path d="M26.5781 13.6719V16.5219C26.5781 19.0156 27.4634 21.3313 29.2341 23.1125C31.0047 24.8938 33.3066 25.7844 35.7855 25.7844H38.6185V13.6719H26.5781Z" fill="white"/>
<path d="M29.2341 30.0625L26.5781 27.3906V30.0625H29.2341Z" fill="white"/>
<path d="M30.1194 31.1328H26.5781V34.3391H33.4836L30.1194 31.1328Z" fill="white"/>
<path d="M38.4443 26.8594H35.6113C33.1324 26.8594 31.1847 27.5719 29.4141 29.175L38.2673 38.0812V26.8594H38.4443Z" fill="white"/>
<path d="M39.5039 12.7875H47.6489C45.5241 9.4031 42.8681 6.73125 39.5039 4.59375V12.7875Z" fill="white"/>
<path d="M51.5469 25.7844C51.5469 21.5094 50.3074 17.4125 48.3597 13.6719H39.6836V25.7844H51.5469Z" fill="white"/>
<path d="M51.5443 26.8594H39.5039V39.15L44.4617 44.1375C49.0654 39.15 51.3672 33.45 51.5443 26.8594Z" fill="white"/>
<path d="M25.5169 12.7844V0.671875C21.2674 0.671875 17.1949 1.91874 13.4766 3.87811V12.6062H25.5169V12.7844Z" fill="white"/>
<path d="M3.73794 13.6719C1.61317 17.4125 0.550781 21.5094 0.550781 25.7844H12.5911V13.6719H3.73794Z" fill="white"/>
<path d="M16.3096 26.8594H13.4766V38.9719H25.5169V36.3C25.5169 33.8062 24.6316 31.4906 22.861 29.7094C21.0903 27.75 18.7885 26.8594 16.3096 26.8594Z" fill="white"/>
<path d="M4.44531 12.7875H12.5903V4.59375C9.22605 6.73125 6.57008 9.4031 4.44531 12.7875Z" fill="white"/>
<path d="M12.5911 26.8594H0.550781C0.550781 31.1344 1.79023 35.2312 3.73794 38.7937H12.4141V26.8594H12.5911Z" fill="white"/>
<path d="M13.4766 39.8594V48.5875C17.1949 50.725 21.2674 51.7937 25.5169 51.9719V39.8594H13.4766Z" fill="white"/>
<path d="M12.5903 48.0531V39.8594H4.44531C6.39302 43.2438 9.22605 45.9156 12.5903 48.0531Z" fill="white"/>
<path d="M46.5864 47.5187L43.2222 44.3125H26.5781V47.6969H46.5864V47.5187Z" fill="white"/>
<path d="M50.8359 51.9703L47.4717 48.5859H26.5781V51.9703H50.8359Z" fill="white"/>
<path d="M37.7345 38.7906L34.3702 35.4062H26.4023V38.7906H37.7345Z" fill="white"/>
<path d="M38.7956 39.8594H26.5781V43.2437H42.1598L38.7956 39.8594Z" fill="white"/>
</g>
<defs>
<clipPath id="clip0_30_637">
<rect width="182" height="53" fill="white"/>
</clipPath>
</defs>
</svg>
