<svg width="288" height="85" viewBox="0 0 288 85" fill="none" xmlns="http://www.w3.org/2000/svg">
<path d="M269.505 5.57812H263.163V39.8437H269.505V5.57812Z" fill="#106FB3"/>
<path d="M277.696 59.2344L280.602 53.9219C278.224 52.5937 276.11 52.3281 273.732 52.8594C271.618 53.3906 270.297 54.4531 269.241 56.3125V53.3906H263.163V80.4844H269.505V65.0781C269.505 62.6875 270.297 60.8281 271.619 59.5C273.204 58.1719 275.318 58.1719 277.696 59.2344Z" fill="#106FB3"/>
<path d="M257.615 5.57812H251.538V34.2656H239.384C239.912 33.7344 240.44 32.9375 240.969 31.875C241.497 31.0781 241.762 30.0156 241.762 28.6875C241.762 26.0312 240.969 23.9062 239.119 22.0469C237.27 20.1875 235.156 19.3906 232.514 19.3906C229.872 19.3906 227.758 20.1875 225.908 22.0469C224.059 23.9062 223.266 26.0312 223.266 28.6875C223.266 30.0156 223.53 31.0781 224.059 32.1406C224.587 33.2031 225.116 33.7344 225.644 34.2656H207.941V20.4531H201.864V34.2656H134.752V5.57812H128.675V39.8437H257.351V5.57812H257.615ZM231.985 34.2656C230.929 34.2656 229.872 34 229.079 32.9375C228.286 32.1406 227.758 31.0781 227.758 29.75C227.758 28.4219 228.022 27.3594 229.079 26.5625C229.872 25.7656 230.929 25.2344 232.25 25.2344C233.571 25.2344 234.628 25.5 235.42 26.5625C236.213 27.3594 236.741 28.4219 236.741 29.75C236.741 31.0781 236.213 32.1406 235.42 32.9375C234.363 33.7344 233.307 34.2656 231.985 34.2656Z" fill="#106FB3"/>
<path d="M231.721 9.5625C230.929 9.5625 230.136 9.82813 229.607 10.3594C229.079 10.8906 228.815 11.6875 228.815 12.4844C228.815 13.2812 229.079 14.0781 229.607 14.6094C230.136 15.4063 230.929 15.9375 231.721 15.9375C232.514 15.9375 233.307 15.6719 233.835 14.875C234.363 14.3438 234.628 13.5469 234.628 12.75C234.628 11.9531 234.363 11.1563 233.835 10.625C233.307 9.82813 232.514 9.5625 231.721 9.5625Z" fill="#106FB3"/>
<path d="M247.574 53.6563C246.253 52.8594 244.668 52.5938 242.818 52.5938C238.855 52.5938 235.685 53.9219 232.778 56.5781C230.136 59.2344 228.815 62.6875 228.815 66.6719C228.815 70.6563 230.136 74.1094 232.778 76.7656C235.42 79.4219 238.855 80.75 242.818 80.75C244.932 80.75 246.518 80.4844 247.839 79.6875C249.16 78.8906 250.481 77.8281 251.274 76.2344V79.9531H257.351V53.3906H251.274V57.1094C250.217 55.5156 249.16 54.4531 247.574 53.6563ZM237.798 61.0938C239.384 59.5 241.233 58.9688 243.347 58.9688C245.725 58.9688 247.574 59.7656 249.16 61.3594C250.745 62.9531 251.538 64.8125 251.538 67.2031C251.538 69.3281 250.745 71.1875 249.16 72.7813C247.574 74.375 245.725 75.1719 243.611 75.1719C241.233 75.1719 239.384 74.375 237.798 72.7813C236.213 71.1875 235.42 69.3281 235.42 66.9375C235.42 64.5469 236.213 62.6875 237.798 61.0938Z" fill="#106FB3"/>
<path d="M224.851 66.1406C224.851 63.75 224.851 61.8906 224.587 60.5625C224.323 59.2344 223.795 58.1719 223.266 57.1094C222.209 55.5156 221.152 54.4531 219.567 53.9219C218.246 53.125 216.396 52.8594 214.547 52.8594C212.962 52.8594 211.64 53.125 210.584 53.6563C209.262 54.1875 208.206 55.25 207.413 56.5781V53.3906H201.336V80.4844H207.413V68.7969C207.413 65.0781 207.941 62.6875 208.734 61.0938C209.791 59.5 211.112 58.9688 213.226 58.9688C215.34 58.9688 216.661 59.7656 217.453 61.0938C218.246 62.4219 218.774 64.8125 218.774 68.5312V80.4844H225.116V66.1406H224.851Z" fill="#106FB3"/>
<path d="M180.727 9.5625C179.934 9.5625 179.141 9.82813 178.613 10.3594C178.085 10.8906 177.82 11.6875 177.82 12.4844C177.82 13.2812 178.085 14.0781 178.613 14.6094C179.141 15.4063 179.934 15.9375 180.727 15.9375C181.519 15.9375 182.312 15.6719 182.84 14.875C183.369 14.3438 183.633 13.5469 183.633 12.75C183.633 11.9531 183.369 11.1563 182.84 10.625C182.312 9.82813 181.784 9.5625 180.727 9.5625Z" fill="#106FB3"/>
<path d="M168.573 43.8281C166.723 42.7656 164.345 42.2344 161.439 42.2344C158.268 42.2344 156.154 43.2969 155.097 44.625C153.776 46.2187 153.248 48.6094 153.248 51.7969V56.5781H151.134V62.1562H153.248V80.4844H159.589V62.1562H165.666V56.5781H159.589V51.7969C159.589 50.2031 160.118 49.1406 160.91 48.6094C161.967 48.0781 163.552 48.3437 165.666 48.875L168.573 43.8281Z" fill="#106FB3"/>
<path d="M116.257 20.4531V29.2188C116.257 32.6719 114.936 34.7969 112.558 35.8594C110.444 36.6563 107.802 36.6563 104.367 35.8594C104.367 37.9844 105.688 39.5781 108.066 40.6406C110.708 41.7031 113.351 41.7031 115.993 40.6406C118.371 39.8438 120.22 38.25 121.013 35.8594C121.806 34 122.07 31.6094 122.07 28.4219V20.4531H116.257Z" fill="#106FB3"/>
<path d="M128.675 53.3906V57.1094C127.618 55.5156 126.297 54.4531 124.712 53.9219C123.391 53.125 121.806 52.8594 119.956 52.8594C115.993 52.8594 112.822 54.1875 110.18 56.8438C107.538 59.5 106.217 62.9531 106.217 66.9375C106.217 70.9219 107.538 74.375 110.18 77.0313C112.822 79.6875 116.257 81.0156 120.22 81.0156C122.334 81.0156 123.919 80.75 125.24 79.9531C126.562 79.1563 127.618 78.0938 128.675 76.5V80.2188H134.752V53.3906H128.675ZM120.749 58.9688C123.127 58.9688 124.976 59.7656 126.297 61.3594C127.883 62.9531 128.675 64.8125 128.675 67.2031C128.675 69.3281 127.883 71.1875 126.297 72.7812C124.712 74.375 122.862 75.1719 120.749 75.1719C118.371 75.1719 116.521 74.375 114.936 72.7812C113.351 71.1875 112.558 69.3281 112.558 66.9375C112.558 64.8125 113.351 62.9531 114.936 61.3594C116.521 59.7656 118.371 58.9688 120.749 58.9688Z" fill="#106FB3"/>
<path d="M189.182 53.3906V57.1094C188.125 55.5156 186.804 54.4531 185.218 53.9219C183.897 53.125 182.312 52.8594 180.462 52.8594C176.499 52.8594 173.329 54.1875 170.686 56.8438C168.044 59.5 166.723 62.9531 166.723 66.9375C166.723 70.9219 168.044 74.375 170.951 77.0313C173.593 79.6875 177.028 81.0156 180.991 81.0156C183.105 81.0156 184.69 80.75 186.011 79.9531C187.332 79.1563 188.389 78.0938 189.446 76.5V80.2188H195.523V53.3906H189.182ZM186.804 61.0938C188.389 62.6875 188.918 64.5469 188.918 66.9375C188.918 69.0625 188.125 70.9219 186.804 72.5156C185.218 74.1094 183.369 74.9063 181.255 74.9063C178.877 74.9063 177.028 74.1094 175.442 72.5156C173.857 70.9219 173.064 69.0625 173.064 66.6719C173.064 64.5469 173.857 62.6875 175.442 61.0938C177.028 59.5 178.877 58.9688 180.991 58.9688C183.369 58.9688 185.218 59.7656 186.804 61.0938Z" fill="#106FB3"/>
<path d="M147.435 43.0312H141.358V80.4844H147.435V43.0312Z" fill="#106FB3"/>
<path d="M66.3194 8.76562C60.7708 5.57812 54.9579 3.98438 48.3524 3.98438V22.0469H66.3194V8.76562Z" fill="#106FB3"/>
<path d="M47.0313 27.625V23.375H29.0643V41.4375H33.2919C36.9909 41.4375 40.4258 40.1094 43.068 37.4531C45.7102 34.7969 47.0313 31.3437 47.0313 27.625Z" fill="#106FB3"/>
<path d="M48.6166 23.375V27.625C48.6166 31.3437 49.9377 34.7969 52.5799 37.4531C55.2221 40.1094 58.6569 41.4375 62.356 41.4375H66.5836V23.375H48.6166Z" fill="#106FB3"/>
<path d="M52.5799 47.8125L48.6166 43.8281V47.8125H52.5799Z" fill="#106FB3"/>
<path d="M53.901 49.4062H48.6166V54.1875H58.9212L53.901 49.4062Z" fill="#106FB3"/>
<path d="M66.3193 43.0312H62.0918C58.3927 43.0312 55.4863 44.0937 52.8441 46.4844L66.0551 59.7656V43.0312H66.3193Z" fill="#106FB3"/>
<path d="M67.9047 22.0469H80.0588C76.8881 17 72.9248 13.0156 67.9047 9.82812V22.0469Z" fill="#106FB3"/>
<path d="M85.8717 41.4375C85.8717 35.0625 84.0222 28.9531 81.1157 23.375H68.1689V41.4375H85.8717Z" fill="#106FB3"/>
<path d="M85.8716 43.0312H67.9047V61.3594L75.3028 68.7969C82.1726 61.3594 85.6074 52.8594 85.8716 43.0312Z" fill="#106FB3"/>
<path d="M47.0313 22.0469V3.98438C40.69 3.98438 34.613 5.84375 29.0643 8.76562V21.7812H47.0313V22.0469Z" fill="#106FB3"/>
<path d="M14.5322 23.375C11.3616 28.9531 9.77625 35.0625 9.77625 41.4375H27.7432V23.375H14.5322Z" fill="#106FB3"/>
<path d="M33.2919 43.0312H29.0643V61.0937H47.0313V57.1094C47.0313 53.3906 45.7102 49.9375 43.068 47.2812C40.4258 44.3594 36.9909 43.0312 33.2919 43.0312Z" fill="#106FB3"/>
<path d="M15.5891 22.0469H27.7432V9.82812C22.7231 13.0156 18.7598 17 15.5891 22.0469Z" fill="#106FB3"/>
<path d="M27.7432 43.0312H9.77625C9.77625 49.4063 11.6258 55.5156 14.5322 60.8281H27.479V43.0312H27.7432Z" fill="#106FB3"/>
<path d="M29.0643 62.4219V75.4375C34.613 78.625 40.69 80.2187 47.0313 80.4844V62.4219H29.0643Z" fill="#106FB3"/>
<path d="M27.7432 74.6406V62.4219H15.5891C18.4955 67.4688 22.7231 71.4531 27.7432 74.6406Z" fill="#106FB3"/>
<path d="M78.4735 73.8437L73.4533 69.0625H48.6166V74.1094H78.4735V73.8437Z" fill="#106FB3"/>
<path d="M84.8147 80.4844L79.7946 75.4375H48.6166V80.4844H84.8147Z" fill="#106FB3"/>
<path d="M65.2625 60.8281L60.2423 55.7812H48.3524V60.8281H65.2625Z" fill="#106FB3"/>
<path d="M66.8478 62.4219H48.6166V67.4687H71.868L66.8478 62.4219Z" fill="#106FB3"/>
</svg>
